<?xml version="1.0" encoding="utf-8"?>
<!-- Generator: Adobe Illustrator 15.1.0, SVG Export Plug-In . SVG Version: 6.00 Build 0)  -->
<!DOCTYPE svg PUBLIC "-//W3C//DTD SVG 1.1//EN" "http://www.w3.org/Graphics/SVG/1.1/DTD/svg11.dtd">
<svg version="1.1" id="Warstwa_1" xmlns="http://www.w3.org/2000/svg" xmlns:xlink="http://www.w3.org/1999/xlink" x="0px" y="0px"
	 width="400px" height="265px" viewBox="0 0 400 265" enable-background="new 0 0 400 265" xml:space="preserve">
<g>
	<path fill="#009EE2" d="M225.539,152.928h-14.49v29.985c0,3.882,0.17,7.098,0.545,9.666c-4.833-7.325-10.905-10.983-18.237-10.983
		c-7.464,0-13.302,2.487-17.519,7.464c-4.212,4.984-6.312,11.899-6.312,20.757c0,8.644,2.157,15.531,6.481,20.649
		c4.321,5.128,9.916,7.688,16.804,7.688c8.051,0,14.093-3.216,18.121-9.661l-0.214,7.584h14.82V152.928z M208.079,220.805
		c-2.346,2.635-5.602,3.953-9.773,3.953c-4.176,0-7.441-1.336-9.785-4.012c-2.34-2.675-3.508-6.387-3.508-11.145
		c0-4.761,1.186-8.495,3.564-11.207c2.387-2.702,5.662-4.06,9.842-4.06c3.942,0,7.135,1.357,9.547,4.06
		c2.412,2.712,3.627,6.486,3.627,11.319C211.594,214.466,210.415,218.165,208.079,220.805 M293.201,183.458h-14.499v8.679
		c-4.028-6.959-9.925-10.43-17.688-10.43c-7.465,0-13.307,2.466-17.515,7.406c-4.212,4.944-6.315,11.846-6.315,20.703
		c0,8.644,2.152,15.531,6.477,20.649c4.319,5.128,9.925,7.688,16.808,7.688c8.05,0,14.093-3.216,18.122-9.661l-0.219,7.584h14.829
		V183.458z M275.736,220.805c-2.345,2.635-5.605,3.953-9.777,3.953c-4.177,0-7.433-1.318-9.777-3.953
		c-2.341-2.64-3.516-6.339-3.516-11.091c0-4.762,1.192-8.514,3.568-11.257c2.377-2.751,5.664-4.122,9.827-4.122
		c3.962,0,7.146,1.357,9.567,4.06c2.412,2.712,3.618,6.486,3.618,11.319C279.247,214.466,278.077,218.165,275.736,220.805
		 M332.075,183.458h-7.36v-17.46h-15.264v17.46h-7.361v11.976h7.361v40.643h15.264v-40.643h7.36V183.458z M394.244,183.458h-14.499
		v8.679c-4.029-6.959-9.926-10.43-17.68-10.43c-7.478,0-13.315,2.466-17.532,7.406c-4.198,4.944-6.312,11.846-6.312,20.703
		c0,8.644,2.157,15.531,6.481,20.649c4.324,5.128,9.93,7.688,16.813,7.688c8.059,0,14.093-3.216,18.117-9.661l-0.224,7.584h14.835
		V183.458z M376.783,220.805c-2.345,2.635-5.61,3.953-9.777,3.953c-4.182,0-7.433-1.318-9.773-3.953
		c-2.345-2.64-3.524-6.339-3.524-11.091c0-4.762,1.197-8.514,3.578-11.257c2.372-2.751,5.654-4.122,9.822-4.122
		c3.957,0,7.143,1.357,9.559,4.06c2.412,2.712,3.627,6.486,3.627,11.319C380.294,214.466,379.124,218.165,376.783,220.805"/>
	<path fill="#E20613" d="M55.908,189.117c-4.212-4.944-10.053-7.414-17.517-7.414c-7.397,0-13.476,3.622-18.237,10.872
		c0.44-3.073,0.663-6.294,0.663-9.662v-29.985H6.209v83.14h14.823l-0.109-7.575c4.027,6.445,10.072,9.661,18.124,9.661
		c6.888,0,12.466-2.555,16.748-7.683c4.281-5.128,6.427-12.011,6.427-20.654C62.222,200.954,60.118,194.058,55.908,189.117
		 M43.225,220.809c-2.349,2.627-5.605,3.944-9.773,3.944c-4.181,0-7.437-1.317-9.775-3.944c-2.354-2.644-3.522-6.343-3.522-11.1
		c0-4.833,1.208-8.607,3.622-11.314c2.421-2.706,5.604-4.06,9.562-4.06c4.174,0,7.446,1.371,9.829,4.113
		c2.383,2.752,3.571,6.499,3.571,11.261C46.738,214.466,45.563,218.165,43.225,220.809 M88.361,155.505
		c-1.755-1.715-3.884-2.577-6.368-2.577c-2.418,0-4.504,0.876-6.26,2.631c-1.758,1.76-2.631,3.846-2.631,6.267
		c0,2.417,0.873,4.521,2.631,6.316c1.755,1.791,3.841,2.689,6.26,2.689c2.417,0,4.516-0.876,6.307-2.641
		c1.798-1.755,2.7-3.877,2.7-6.365C91.001,159.338,90.117,157.229,88.361,155.505 M89.674,183.467H74.407v52.609h15.267V183.467z
		 M157.77,183.467h-14.49v8.67c-4.094-6.954-9.97-10.434-17.646-10.434c-7.437,0-13.268,2.456-17.462,7.36
		c-4.204,4.909-6.298,11.752-6.298,20.543c0,8.634,2.168,15.464,6.508,20.476c4.355,5.021,10.104,7.531,17.252,7.531
		c7.676,0,13.517-3.189,17.537-9.563v7.473c0,4.833-0.842,8.313-2.528,10.438c-1.836,2.336-4.904,3.511-9.226,3.511
		c-6.153,0-9.445-1.974-9.889-5.932h-16.799c0.726,10.975,9.628,16.474,26.688,16.474c10.053,0,17.358-2.412,21.932-7.254
		c1.995-2.046,3.29-4.641,3.875-7.795c0.371-1.902,0.547-5.163,0.547-9.773V183.467z M140.33,220.64
		c-2.336,2.6-5.579,3.903-9.742,3.903c-4.156,0-7.395-1.322-9.733-3.962c-2.327-2.626-3.5-6.253-3.5-10.872
		c0-4.681,1.186-8.366,3.555-11.042c2.368-2.666,5.635-4.002,9.787-4.002c4.011,0,7.205,1.336,9.575,4.002
		c2.37,2.676,3.553,6.361,3.553,11.042C143.825,214.399,142.659,218.04,140.33,220.64"/>
</g>
<polygon fill="#B09CB0" points="183.038,66.072 195.844,63.178 183.646,62.414 "/>
<polygon fill="#7E80AC" points="183.043,66.072 190.049,65.849 195.844,63.178 "/>
<polygon fill="#B2A7B3" points="172.434,56.862 183.648,62.418 183.045,66.077 "/>
<polygon fill="#BCBAB9" points="166.429,57.375 172.434,56.857 183.043,66.077 "/>
<polygon fill="#7E80AC" points="174.313,63.178 183.034,66.072 166.431,57.375 "/>
<polygon fill="#E20D13" points="163.521,21.324 155.943,13.775 138.063,10.042 "/>
<polygon fill="#C71918" points="171.833,34.055 163.519,21.32 151.856,22.771 "/>
<polygon fill="#E31913" points="138.063,10.042 151.86,22.776 163.521,21.324 "/>
<polygon fill="#D21217" points="134.704,23.919 138.061,10.042 151.856,22.776 "/>
<polygon fill="#3B1B14" points="153.042,32.156 157.303,34.059 155.941,32.156 "/>
<polygon fill="#3B1B14" points="154.567,34.434 157.303,34.059 153.04,32.147 "/>
<polygon fill="#CD1817" points="151.863,22.771 155.943,32.147 171.836,34.059 "/>
<polygon fill="#BF1717" points="153.042,32.152 155.937,32.152 151.865,22.776 "/>
<polygon fill="#B61918" points="134.704,23.919 153.04,32.147 151.856,22.776 "/>
<polygon fill="#A51916" points="157.308,34.055 172.434,56.862 166.429,57.375 "/>
<polygon fill="#DF2014" points="183.648,62.414 171.833,34.055 172.434,56.862 "/>
<polygon fill="#991915" points="157.305,34.055 171.833,34.055 155.943,32.152 "/>
<polygon fill="#A51916" points="172.434,56.862 157.308,34.055 171.833,34.055 "/>
<polygon fill="#951914" points="156.506,54.865 166.426,57.38 157.308,34.055 "/>
<polygon fill="#791B0F" points="154.567,34.434 156.508,54.87 157.303,34.059 "/>
<polygon fill="#751A0E" points="142.478,54.333 156.506,54.865 154.567,34.434 "/>
<polygon fill="#791B0F" points="138.063,35.203 142.476,54.333 154.561,34.434 "/>
<polygon fill="#A91917" points="138.061,35.198 154.558,34.438 153.04,32.152 "/>
<polygon fill="#A31916" points="134.704,23.919 138.061,35.203 153.04,32.147 "/>
<polygon fill="#E31513" points="123.461,6.003 138.061,10.042 134.704,23.919 "/>
<polygon fill="#3B1B14" points="166.429,57.375 156.508,54.865 142.478,54.333 "/>
<polygon fill="#69160F" points="171.262,74.327 166.429,57.375 174.304,63.182 "/>
<polygon fill="#761B0E" points="183.648,78.159 183.045,66.072 174.304,63.178 "/>
<polygon fill="#69190C" points="178.978,91.135 183.648,78.159 174.313,63.178 "/>
<polygon fill="#5D1A0E" points="172.863,97.938 178.985,91.14 174.315,63.178 "/>
<polygon fill="#69190C" points="171.262,74.327 172.856,97.938 174.308,63.182 "/>
<polygon fill="#74160D" points="166.873,91.461 171.264,74.327 172.856,97.942 "/>
<polygon fill="#69180D" points="166.114,102.212 172.865,97.942 166.882,91.461 "/>
<polygon fill="#6D150B" points="161.468,94.815 166.88,91.461 166.116,102.212 "/>
<polygon fill="#69180D" points="158.989,103.441 161.468,94.815 166.121,102.208 "/>
<polygon fill="#801710" points="156.506,94.815 158.989,103.437 161.475,94.815 "/>
<polygon fill="#74160D" points="154.985,102.74 158.992,103.441 156.508,94.82 "/>
<polygon fill="#801810" points="134.704,66.077 142.478,54.333 138.061,35.203 "/>
<polygon fill="#871812" points="97.806,43.203 134.708,66.072 138.054,35.198 "/>
<polygon fill="#B71817" points="134.704,23.919 97.804,43.207 138.061,35.203 "/>
<polygon fill="#E31513" points="95.517,22.164 97.804,43.203 134.71,23.915 "/>
<polygon fill="#E42614" points="123.461,6.003 95.523,22.164 134.704,23.919 "/>
<polygon fill="#D71416" points="101.158,11.185 123.461,6.003 95.523,22.168 "/>
<polygon fill="#E31513" points="68.685,13.775 101.161,11.185 95.517,22.164 "/>
<polygon fill="#8B1812" points="123.461,64.625 134.704,66.077 97.806,43.203 "/>
<polygon fill="#76180E" points="97.806,43.203 112.959,72.634 123.461,64.629 "/>
<polygon fill="#D61516" points="130.59,142.462 128.915,128.361 112.683,142.462 "/>
<polygon fill="#AD1917" points="112.959,130.724 112.685,142.462 128.908,128.356 "/>
<polygon fill="#D61516" points="126.322,105.259 128.915,128.356 112.962,130.724 "/>
<polygon fill="#AD1917" points="108.853,103.441 112.959,130.724 126.322,105.259 "/>
<polygon fill="#421B13" points="122.889,74.327 108.85,103.441 126.324,105.259 "/>
<polygon fill="#1D1511" points="123.461,64.625 122.889,74.327 112.968,72.629 "/>
<polygon fill="#65180D" points="104.748,90.907 108.854,103.441 112.962,72.629 "/>
<polygon fill="#5C180E" points="122.889,74.327 112.953,72.629 108.85,103.441 "/>
<polygon fill="#AD1917" points="101.158,128.361 101.158,143.074 82.867,142.462 "/>
<polygon fill="#A71916" points="84.578,127.557 82.863,142.462 101.158,128.356 "/>
<polygon fill="#AD1917" points="104.748,90.907 101.161,128.361 86.007,102.056 "/>
<polygon fill="#8E1913" points="84.578,127.557 86.005,102.061 101.158,128.356 "/>
<polygon fill="#871812" points="82.863,78.159 86.005,102.056 104.748,90.912 "/>
<polygon fill="#8E1913" points="112.959,72.634 82.863,78.159 104.741,90.912 "/>
<polygon fill="#871812" points="97.806,43.203 82.863,78.159 112.959,72.634 "/>
<polygon fill="#C91518" points="42.957,18.35 68.685,13.771 52.104,46.293 "/>
<polygon fill="#C91518" points="95.517,22.164 52.107,46.293 68.688,13.771 "/>
<polygon fill="#C11718" points="97.806,43.203 95.519,22.164 52.104,46.285 "/>
<polygon fill="#881812" points="82.863,78.159 52.098,46.285 97.806,43.198 "/>
<polygon fill="#801810" points="29.802,89.348 82.86,78.159 52.104,46.285 "/>
<polygon fill="#DD0C15" points="22.258,34.434 42.959,18.354 52.107,46.289 "/>
<polygon fill="#BF1717" points="11.163,52.998 22.258,34.438 52.104,46.289 "/>
<polygon fill="#69180D" points="10.483,83.533 11.165,53.002 52.096,46.289 "/>
<polygon fill="#69190D" points="29.802,89.348 10.477,83.533 52.104,46.285 "/>
<polygon fill="#64150E" points="24.228,109.042 29.805,89.344 10.475,83.537 "/>
<polygon fill="#74160D" points="7.509,115.474 10.477,83.533 24.23,109.038 "/>
<polygon fill="#9E1915" points="22.258,129.728 24.228,109.038 7.511,115.479 "/>
<polygon fill="#8B1812" points="6.189,131.47 7.511,115.47 22.258,129.732 "/>
<polygon fill="#71160C" points="22.716,139.907 22.258,129.732 6.189,131.47 "/>
<polygon fill="#76160E" points="4.882,139.831 4.882,139.881 22.716,139.912 6.195,131.47 "/>
<polygon fill="#5C180F" points="52.104,94.852 82.869,78.159 29.802,89.348 "/>
<polygon fill="#76160E" points="45.51,111.892 52.104,94.852 29.811,89.344 "/>
<polygon fill="#451A13" points="29.344,117.534 29.802,89.348 45.514,111.892 "/>
<polygon fill="#9C1915" points="43.602,128.361 45.51,111.888 29.347,117.534 "/>
<polygon fill="#A51916" points="28.438,140.251 29.351,117.534 43.604,128.361 "/>
<polygon fill="#B01917" points="44.103,140.738 28.431,140.251 43.602,128.356 "/>
<polygon fill="#BFC6BA" points="196.729,62.847 209.915,65.831 209.28,62.061 "/>
<polygon fill="#B6B89F" points="202.694,65.594 209.915,65.827 196.731,62.852 "/>
<polygon fill="#C7CCC6" points="220.822,56.348 209.28,62.061 209.905,65.835 "/>
<polygon fill="#D7D6D7" points="227.005,56.875 220.822,56.348 209.905,65.827 "/>
<polygon fill="#B6B89F" points="218.889,62.847 209.91,65.835 226.995,56.879 "/>
<polygon fill="#5584C3" points="229.988,19.783 237.796,12.016 256.19,8.174 "/>
<polygon fill="#3A5BA6" points="221.438,32.88 229.997,19.779 241.99,21.271 "/>
<polygon fill="#4070B5" points="256.19,8.17 241.99,21.275 229.988,19.779 "/>
<polygon fill="#3B5AA5" points="259.643,22.445 256.19,8.174 241.995,21.266 "/>
<polygon fill="#1A2241" points="237.801,30.923 236.385,32.88 240.771,30.923 "/>
<polygon fill="#1A2241" points="236.385,32.88 239.212,33.273 240.78,30.919 "/>
<polygon fill="#3E5FA8" points="241.995,21.271 237.796,30.923 221.438,32.88 "/>
<polygon fill="#3B5AA5" points="237.792,30.919 240.775,30.919 241.99,21.271 "/>
<polygon fill="#3855A1" points="259.643,22.445 240.775,30.919 241.995,21.266 "/>
<polygon fill="#304E9C" points="236.385,32.88 220.822,56.344 227,56.875 "/>
<polygon fill="#5584C3" points="209.28,62.061 221.438,32.875 220.822,56.344 "/>
<polygon fill="#2A4092" points="221.438,32.88 236.385,32.88 237.805,30.923 "/>
<polygon fill="#324C9B" points="220.822,56.348 236.385,32.88 221.438,32.88 "/>
<polygon fill="#243F91" points="237.206,54.298 227.005,56.879 236.376,32.884 "/>
<polygon fill="#263579" points="237.216,54.298 239.208,33.277 236.385,32.88 "/>
<polygon fill="#24377A" points="251.643,53.744 237.206,54.298 239.208,33.273 "/>
<polygon fill="#24377A" points="256.19,34.059 251.647,53.753 239.208,33.273 "/>
<polygon fill="#334E9C" points="239.208,33.277 256.19,34.055 240.771,30.919 "/>
<polygon fill="#314998" points="259.643,22.445 256.19,34.055 240.775,30.919 "/>
<polygon fill="#4070B5" points="271.216,4.011 256.194,8.17 259.643,22.445 "/>
<polygon fill="#1A2241" points="237.206,54.298 227.005,56.871 251.643,53.744 "/>
<polygon fill="#1F3B5A" points="222.028,74.322 227.005,56.875 218.889,62.852 "/>
<polygon fill="#263579" points="209.28,78.262 209.91,65.831 218.889,62.847 "/>
<polygon fill="#24336A" points="214.087,91.617 209.28,78.266 218.889,62.847 "/>
<polygon fill="#222F5E" points="220.385,98.621 214.087,91.617 218.889,62.852 "/>
<polygon fill="#24336A" points="220.385,98.621 222.028,74.318 218.889,62.852 "/>
<polygon fill="#233877" points="226.535,91.953 222.037,74.318 220.385,98.621 "/>
<polygon fill="#20376C" points="227.326,103.012 220.385,98.621 226.54,91.948 "/>
<polygon fill="#1C3B70" points="232.105,95.405 226.54,91.953 227.326,103.017 "/>
<polygon fill="#1F386C" points="234.651,104.276 232.105,95.405 227.326,103.012 "/>
<polygon fill="#0B4687" points="237.206,95.405 234.651,104.276 232.101,95.405 "/>
<polygon fill="#1C3D79" points="234.656,104.281 238.778,103.562 237.206,95.401 "/>
<polygon fill="#233980" points="259.643,65.831 251.639,53.744 256.19,34.059 "/>
<polygon fill="#213B88" points="297.614,42.296 259.643,65.827 256.19,34.055 "/>
<polygon fill="#3858A3" points="259.643,22.445 297.61,42.296 256.19,34.055 "/>
<polygon fill="#4070B5" points="299.964,20.641 297.614,42.296 259.643,22.45 "/>
<polygon fill="#5584C3" points="271.216,4.011 299.964,20.65 259.643,22.445 "/>
<polygon fill="#4164AC" points="294.162,9.349 271.216,4.016 299.964,20.641 "/>
<polygon fill="#486FB4" points="327.577,12.011 294.162,9.345 299.964,20.646 "/>
<polygon fill="#203C8C" points="271.216,64.339 259.643,65.827 297.61,42.296 "/>
<polygon fill="#243776" points="297.614,42.296 282.017,72.58 271.221,64.339 "/>
<polygon fill="#448BC9" points="263.882,144.437 265.606,129.924 282.308,144.437 "/>
<polygon fill="#3157A3" points="282.017,132.354 282.303,144.437 265.606,129.92 "/>
<polygon fill="#2461AB" points="268.272,106.152 265.606,129.92 282.017,132.35 "/>
<polygon fill="#65A4D9" points="286.247,104.276 282.017,132.358 268.277,106.152 "/>
<polygon fill="#1D2549" points="271.802,74.322 286.242,104.281 268.272,106.157 "/>
<polygon fill="#171918" points="271.216,64.339 271.797,74.322 282.025,72.576 "/>
<polygon fill="#223367" points="290.477,91.385 286.251,104.281 282.025,72.58 "/>
<polygon fill="#21315F" points="271.802,74.322 282.017,72.58 286.242,104.281 "/>
<polygon fill="#305DA8" points="294.162,129.924 294.162,145.058 312.984,144.433 "/>
<polygon fill="#2E5AA5" points="311.221,129.098 312.989,144.433 294.166,129.924 "/>
<polygon fill="#305DA8" points="290.477,91.385 294.162,129.924 309.755,102.856 "/>
<polygon fill="#194091" points="311.221,129.098 309.755,102.851 294.166,129.924 "/>
<polygon fill="#1C3F8B" points="312.989,78.262 309.746,102.86 290.477,91.385 "/>
<polygon fill="#194090" points="282.017,72.576 312.984,78.266 290.477,91.376 "/>
<polygon fill="#1C3F8B" points="297.614,42.296 312.994,78.262 282.017,72.58 "/>
<polygon fill="#4062AB" points="354.057,16.724 327.577,12.011 344.645,45.467 "/>
<polygon fill="#3E5FA8" points="299.964,20.641 344.645,45.467 327.577,12.011 "/>
<polygon fill="#3B5DA7" points="297.614,42.296 299.964,20.641 344.636,45.467 "/>
<polygon fill="#203C8B" points="312.989,78.262 344.641,45.467 297.61,42.3 "/>
<polygon fill="#233983" points="367.586,89.772 312.989,78.262 344.641,45.467 "/>
<polygon fill="#4470B5" points="375.354,33.277 354.057,16.724 344.641,45.467 "/>
<polygon fill="#3965AD" points="386.771,52.377 375.354,33.277 344.645,45.472 "/>
<polygon fill="#20376C" points="387.477,83.792 386.771,52.373 344.636,45.467 "/>
<polygon fill="#23356B" points="367.586,89.772 387.477,83.792 344.641,45.467 "/>
<polygon fill="#1F3769" points="373.326,110.038 367.586,89.772 387.468,83.796 "/>
<polygon fill="#203A76" points="390.532,116.663 387.468,83.796 373.326,110.043 "/>
<polygon fill="#165FA9" points="375.354,131.331 373.326,110.043 390.532,116.663 "/>
<polygon fill="#164993" points="391.89,133.122 390.532,116.667 375.363,131.336 "/>
<polygon fill="#0F4376" points="374.881,141.806 375.354,131.336 391.89,133.122 "/>
<polygon fill="#114480" points="393.238,141.783 374.885,141.801 391.885,133.127 "/>
<polygon fill="#203361" points="344.645,95.441 312.989,78.266 367.591,89.782 "/>
<polygon fill="#19407E" points="351.43,112.978 344.645,95.437 367.582,89.777 "/>
<polygon fill="#1D284B" points="368.055,118.78 367.591,89.772 351.421,112.978 "/>
<polygon fill="#1B59A4" points="353.387,129.924 351.43,112.982 368.055,118.78 "/>
<polygon fill="#2758A4" points="369.002,142.158 368.055,118.784 353.387,129.92 "/>
<polygon fill="#3363AB" points="352.877,142.663 369.002,142.158 353.387,129.929 "/>
<polygon fill="#FFFFFF" points="180.075,251.777 178.399,251.777 178.399,257.508 176.36,257.508 176.36,251.777 174.69,251.777 
	174.69,250.021 180.075,250.021 "/>
<polygon fill="#FFFFFF" points="187.749,257.508 183.166,257.508 183.166,250.021 187.749,250.021 187.749,251.661 185.151,251.661 
	185.151,252.965 187.604,252.965 187.604,254.56 185.151,254.56 185.151,255.828 187.749,255.828 "/>
<g>
	<path fill="#FFFFFF" d="M196.615,257.227c-0.645,0.308-1.295,0.464-1.94,0.464c-1.101,0-2.012-0.37-2.725-1.111
		c-0.714-0.737-1.072-1.68-1.072-2.81c0-1.131,0.357-2.064,1.072-2.806c0.713-0.75,1.624-1.121,2.725-1.121
		c0.645,0,1.295,0.161,1.94,0.469v2.233c-0.541-0.603-1.112-0.906-1.729-0.906c-0.587,0-1.067,0.21-1.422,0.616
		c-0.362,0.402-0.545,0.925-0.545,1.559c0,0.59,0.183,1.072,0.545,1.479c0.355,0.406,0.835,0.604,1.422,0.604
		c0.617,0,1.188-0.304,1.729-0.902V257.227z"/>
</g>
<polygon fill="#FFFFFF" points="206.663,257.508 204.626,257.508 204.626,254.461 201.903,254.461 201.903,257.508 199.86,257.508 
	199.86,250.021 201.903,250.021 201.903,252.93 204.626,252.93 204.626,250.021 206.663,250.021 "/>
<g>
	<path fill="#FFFFFF" d="M217.669,257.508h-1.956l-2.828-3.868c-0.12-0.17-0.353-0.607-0.684-1.3
		c0.076,0.611,0.116,1.104,0.116,1.474v3.694h-1.97v-7.486h1.97l2.828,3.854c0.111,0.161,0.344,0.599,0.684,1.318
		c-0.072-0.612-0.116-1.108-0.116-1.479v-3.694h1.956V257.508z"/>
	<path fill="#FFFFFF" d="M227.005,253.778c0-0.612-0.179-1.14-0.546-1.555c-0.375-0.425-0.844-0.644-1.411-0.644
		c-0.563,0-1.027,0.219-1.398,0.639c-0.37,0.416-0.554,0.942-0.554,1.56c0,0.63,0.175,1.152,0.532,1.572
		c0.366,0.42,0.835,0.63,1.42,0.63c0.572,0,1.045-0.219,1.411-0.639C226.835,254.922,227.005,254.398,227.005,253.778
		 M229.046,253.778c0,1.099-0.385,2.027-1.171,2.787c-0.781,0.759-1.724,1.147-2.827,1.147c-0.938,0-1.791-0.308-2.537-0.906
		c-0.974-0.777-1.456-1.787-1.456-3.028c0-1.09,0.394-2.02,1.18-2.778c0.776-0.764,1.724-1.152,2.813-1.152
		c1.104,0,2.046,0.389,2.827,1.144C228.661,251.75,229.046,252.684,229.046,253.778"/>
</g>
<polygon fill="#FFFFFF" points="236.996,257.508 232.418,257.508 232.418,250.021 234.459,250.021 234.459,255.752 236.996,255.752 
	"/>
<g>
	<path fill="#FFFFFF" d="M245.532,253.778c0-0.612-0.188-1.14-0.558-1.555c-0.367-0.425-0.836-0.644-1.398-0.644
		c-0.567,0-1.036,0.219-1.412,0.639c-0.356,0.416-0.545,0.942-0.545,1.56c0,0.63,0.179,1.152,0.536,1.572
		c0.354,0.42,0.831,0.63,1.421,0.63c0.571,0,1.041-0.219,1.407-0.639C245.345,254.922,245.532,254.398,245.532,253.778
		 M247.569,253.778c0,1.099-0.384,2.027-1.17,2.787c-0.777,0.759-1.725,1.147-2.823,1.147c-0.942,0-1.796-0.308-2.546-0.906
		c-0.965-0.777-1.466-1.787-1.466-3.028c0-1.09,0.411-2.02,1.188-2.778c0.782-0.764,1.725-1.152,2.823-1.152
		s2.046,0.389,2.823,1.144C247.186,251.75,247.569,252.684,247.569,253.778"/>
	<path fill="#FFFFFF" d="M258.526,253.635c0,1.277-0.344,2.283-1.032,2.988c-0.684,0.706-1.639,1.063-2.858,1.063
		c-1.192,0-2.157-0.375-2.89-1.13c-0.746-0.746-1.112-1.676-1.112-2.787c0-1.131,0.384-2.064,1.144-2.806
		c0.741-0.741,1.706-1.107,2.858-1.107c1.465,0,2.591,0.571,3.363,1.724l-1.773,0.845c-0.411-0.572-0.942-0.849-1.59-0.849
		c-0.607,0-1.081,0.196-1.434,0.603c-0.366,0.406-0.541,0.965-0.541,1.68c0,0.706,0.175,1.264,0.527,1.68
		c0.357,0.406,0.831,0.603,1.447,0.603c0.519,0,0.956-0.12,1.295-0.384c0.345-0.259,0.55-0.59,0.599-0.996h-2.027v-1.577h4.011
		C258.526,253.291,258.526,253.443,258.526,253.635"/>
	<path fill="#FFFFFF" d="M267.589,250.021l-2.626,4.069v3.417h-1.957v-3.417l-2.635-4.069h2.354l1.006,1.93
		c0.063,0.099,0.146,0.304,0.25,0.63c0.035-0.147,0.12-0.357,0.268-0.63l0.987-1.93H267.589z"/>
	<path fill="#FFFFFF" d="M284.84,250.021l-2.113,7.486h-1.897l-0.925-3.189c-0.031-0.156-0.13-0.486-0.246-1.014
		c-0.054,0.245-0.143,0.571-0.25,1.014l-0.92,3.189h-1.895l-2.107-7.486h2.063l0.853,3.578c0.094,0.38,0.175,0.75,0.232,1.121
		c0.059-0.304,0.144-0.675,0.264-1.121l0.947-3.578h1.639l0.942,3.564c0.09,0.357,0.17,0.684,0.215,0.979l0.018,0.111
		c0.063-0.277,0.139-0.644,0.241-1.09l0.88-3.564H284.84z"/>
	<path fill="#FFFFFF" d="M291.441,254.712l-0.768-2.471c-0.01-0.044-0.09-0.384-0.241-1.005c-0.135,0.505-0.215,0.835-0.26,1.005
		l-0.769,2.471H291.441z M294.282,257.512h-2.027l-0.385-1.344h-2.895l-0.393,1.344h-2.028l2.591-7.495h2.546L294.282,257.512z"/>
	<path fill="#FFFFFF" d="M300.644,252.626c0-0.389-0.095-0.652-0.295-0.805c-0.188-0.151-0.501-0.232-0.938-0.232h-0.402v1.971
		h0.371C300.232,253.56,300.644,253.246,300.644,252.626 M303.028,257.508h-2.301l-1.72-2.926v2.926h-1.916v-7.486h2.261
		c0.639,0,1.103,0.022,1.38,0.063c0.438,0.067,0.804,0.215,1.081,0.442c0.563,0.438,0.844,1.041,0.844,1.831
		c0,1.188-0.558,1.898-1.666,2.131L303.028,257.508z"/>
	<path fill="#FFFFFF" d="M310.836,255.069c0,0.795-0.259,1.425-0.781,1.907c-0.514,0.491-1.215,0.736-2.086,0.736
		c-1.001,0-1.895-0.375-2.653-1.107l0.916-1.519c0.598,0.684,1.192,1.027,1.782,1.027c0.272,0,0.5-0.071,0.67-0.219
		c0.174-0.147,0.259-0.331,0.259-0.559c0-0.277-0.103-0.487-0.321-0.635c-0.152-0.115-0.47-0.236-0.938-0.356
		c-0.696-0.179-1.197-0.43-1.505-0.733c-0.345-0.325-0.505-0.772-0.505-1.344c0-0.701,0.241-1.282,0.71-1.742
		c0.479-0.46,1.104-0.684,1.872-0.684c0.844,0,1.581,0.224,2.224,0.67l-0.639,1.47c-0.46-0.402-0.942-0.604-1.434-0.604
		c-0.25,0-0.446,0.063-0.599,0.179c-0.151,0.121-0.228,0.272-0.228,0.461c0,0.231,0.116,0.41,0.349,0.535
		c0.12,0.072,0.401,0.161,0.844,0.282c0.72,0.191,1.229,0.433,1.527,0.736C310.657,253.912,310.836,254.412,310.836,255.069"/>
	<path fill="#FFFFFF" d="M318.081,254.712l-0.769-2.471c-0.013-0.044-0.089-0.384-0.24-1.005c-0.135,0.505-0.215,0.835-0.26,1.005
		l-0.768,2.471H318.081z M320.922,257.512h-2.036l-0.376-1.344h-2.895l-0.397,1.344h-2.023l2.587-7.495h2.56L320.922,257.512z"/>
	<path fill="#FFFFFF" d="M332.978,250.021l-2.112,7.486h-1.898l-0.916-3.189c-0.04-0.156-0.125-0.486-0.254-1.014
		c-0.059,0.245-0.139,0.571-0.255,1.014l-0.902,3.189h-1.894l-2.127-7.486h2.073l0.861,3.578c0.085,0.38,0.161,0.75,0.22,1.121
		c0.063-0.304,0.151-0.675,0.268-1.121l0.938-3.578h1.644l0.942,3.564c0.103,0.357,0.174,0.684,0.219,0.979l0.026,0.111
		c0.054-0.277,0.13-0.644,0.224-1.09l0.885-3.564H332.978z"/>
	<path fill="#FFFFFF" d="M346.088,255.069c0,0.795-0.259,1.425-0.777,1.907c-0.519,0.491-1.22,0.736-2.091,0.736
		c-1,0-1.885-0.375-2.662-1.107l0.93-1.519c0.599,0.684,1.192,1.027,1.777,1.027c0.277,0,0.5-0.071,0.67-0.219
		c0.179-0.147,0.259-0.331,0.259-0.559c0-0.277-0.103-0.487-0.313-0.635c-0.165-0.115-0.473-0.236-0.942-0.356
		c-0.701-0.179-1.201-0.43-1.514-0.733c-0.331-0.325-0.501-0.772-0.501-1.344c0-0.701,0.246-1.282,0.715-1.742
		c0.474-0.46,1.099-0.684,1.872-0.684c0.844,0,1.576,0.224,2.22,0.67l-0.635,1.47c-0.464-0.402-0.946-0.604-1.434-0.604
		c-0.254,0-0.442,0.063-0.599,0.179c-0.151,0.121-0.228,0.272-0.228,0.461c0,0.231,0.111,0.41,0.34,0.535
		c0.129,0.072,0.41,0.161,0.849,0.282c0.724,0.191,1.232,0.433,1.536,0.736C345.909,253.912,346.088,254.412,346.088,255.069"/>
	<path fill="#FFFFFF" d="M355.941,254.471c0,1.139-0.259,1.961-0.777,2.465c-0.527,0.514-1.371,0.769-2.551,0.769
		c-1.255,0-2.157-0.304-2.68-0.911c-0.272-0.309-0.46-0.706-0.545-1.179c-0.076-0.354-0.103-0.867-0.103-1.551v-4.047h2.032v4.065
		c0,0.701,0.094,1.179,0.255,1.456c0.188,0.295,0.536,0.446,1.04,0.446c0.572,0,0.943-0.191,1.112-0.585
		c0.116-0.281,0.17-0.885,0.17-1.787v-3.596h2.046V254.471z"/>
	<path fill="#FFFFFF" d="M368.171,257.508h-1.907l-0.433-3.234c-0.063-0.478-0.125-1.031-0.166-1.679
		c-0.049,0.308-0.16,0.776-0.344,1.406l-1.005,3.507h-1.371l-1.01-3.507c-0.08-0.25-0.196-0.719-0.349-1.406
		c-0.035,0.549-0.089,1.107-0.169,1.679l-0.438,3.234h-1.894l1.152-7.486h2.015l1.13,3.859c0.067,0.192,0.152,0.531,0.241,1.019
		c0.036-0.286,0.116-0.626,0.232-1.023l1.144-3.854h2.019L368.171,257.508z"/>
	<path fill="#FFFFFF" d="M379.95,257.508h-1.903l-0.438-3.234c-0.058-0.478-0.12-1.031-0.16-1.679
		c-0.05,0.308-0.166,0.776-0.345,1.406l-1.019,3.507h-1.357l-1.019-3.507c-0.08-0.25-0.188-0.719-0.349-1.406
		c-0.035,0.549-0.089,1.107-0.16,1.679l-0.447,3.234h-1.894l1.144-7.486h2.027l1.135,3.859c0.063,0.192,0.144,0.531,0.241,1.019
		c0.036-0.286,0.116-0.626,0.232-1.023l1.144-3.854h2.015L379.95,257.508z"/>
</g>
<rect x="383.197" y="250.026" fill="#FFFFFF" width="2.06" height="7.481"/>
<polygon fill="#FFFFFF" points="393.793,251.777 392.117,251.777 392.117,257.508 390.076,257.508 390.076,251.777 388.405,251.777 
	388.405,250.021 393.793,250.021 "/>
</svg>
